<svg xmlns="http://www.w3.org/2000/svg" shape-rendering="geometricPrecision" text-rendering="geometricPrecision" image-rendering="optimizeQuality" fill-rule="evenodd" clip-rule="evenodd" viewBox="0 0 445 511.78"><path fill-rule="nonzero" d="M122.53 496.61h199.94c14.62 0 27.64-5.93 37.21-15.49 9.88-9.89 16.13-23.63 16.75-38.73l12.62-305.34H55.95l12.62 305.33c.62 15.11 6.87 28.85 16.75 38.74 9.57 9.56 22.59 15.49 37.21 15.49zm93.6-295.06c0-4.19 3.4-7.59 7.58-7.59 4.19 0 7.59 3.4 7.59 7.59v230.57c0 4.18-3.4 7.58-7.59 7.58-4.18 0-7.58-3.4-7.58-7.58V201.55zm85.67.03c-.01-4.17 3.36-7.57 7.52-7.59 4.17-.01 7.57 3.36 7.59 7.53l1.38 230.56a7.558 7.558 0 01-7.52 7.59c-4.17.01-7.56-3.36-7.58-7.52l-1.39-230.57zm-175.09 0a7.558 7.558 0 017.52-7.59 7.565 7.565 0 017.58 7.53l1.39 230.56c.01 4.17-3.36 7.57-7.52 7.59-4.17.01-7.57-3.36-7.59-7.52l-1.38-230.57zM36.88 61.56h109.24V47.48c0-13.07 5.35-24.94 13.95-33.54C168.66 5.34 180.54 0 193.6 0h57.8c13.06 0 24.94 5.34 33.53 13.94 8.6 8.6 13.95 20.47 13.95 33.54v14.08h109.24c10.15 0 19.37 4.15 26.05 10.83l.44.47C441.03 79.51 445 88.53 445 98.44v31.02c0 4.19-3.4 7.59-7.58 7.59h-33.24l-12.64 305.93c-.79 19.06-8.68 36.39-21.14 48.86-12.32 12.31-29.08 19.94-47.93 19.94H122.53c-18.85 0-35.61-7.63-47.93-19.94-12.46-12.47-20.35-29.81-21.14-48.86L40.8 137.05H7.58c-4.18 0-7.58-3.4-7.58-7.59V98.44C0 88.31 4.15 79.1 10.83 72.42c6.68-6.71 15.9-10.86 26.05-10.86zm371.24 15.16H36.88c-5.97 0-11.4 2.45-15.33 6.39a21.542 21.542 0 00-6.39 15.33v23.44H429.84V98.44c0-5.81-2.3-11.1-6.03-15.01l-.36-.32c-3.93-3.94-9.36-6.39-15.33-6.39zM251.4 15.16h-57.8c-8.88 0-16.96 3.64-22.81 9.5-5.86 5.86-9.5 13.94-9.5 22.82v14.08h122.42V47.48c0-8.88-3.64-16.96-9.5-22.82-5.85-5.86-13.93-9.5-22.81-9.5z"/></svg>